<?xml version="1.0" encoding="UTF-8" standalone="no"?>
<!DOCTYPE svg PUBLIC "-//W3C//DTD SVG 1.1//EN"
 "http://www.w3.org/Graphics/SVG/1.1/DTD/svg11.dtd">
<!-- Generated by graphviz version 2.47.3 (20210619.1520)
 -->
<!-- Title: dependency&#45;cruiser output Pages: 1 -->
<svg width="354pt" height="256pt"
 viewBox="0.00 0.00 354.00 256.00" xmlns="http://www.w3.org/2000/svg" xmlns:xlink="http://www.w3.org/1999/xlink">
<g id="graph0" class="graph" transform="scale(1 1) rotate(0) translate(4 252)">
<title>dependency&#45;cruiser output</title>
<polygon fill="white" stroke="transparent" points="-4,4 -4,-252 350,-252 350,4 -4,4"/>
<g id="clust1" class="cluster">
<title>cluster_src</title>
<path fill="#ffffff" stroke="black" stroke-width="2" d="M20,-8C20,-8 326,-8 326,-8 332,-8 338,-14 338,-20 338,-20 338,-228 338,-228 338,-234 332,-240 326,-240 326,-240 20,-240 20,-240 14,-240 8,-234 8,-228 8,-228 8,-20 8,-20 8,-14 14,-8 20,-8"/>
<text text-anchor="middle" x="173" y="-228.8" font-family="Helvetica,sans-Serif" font-weight="bold" font-size="9.00">src</text>
</g>
<g id="clust2" class="cluster">
<title>cluster_src/components</title>
<path fill="#ffffff" stroke="black" stroke-width="2" d="M243,-102C243,-102 318,-102 318,-102 324,-102 330,-108 330,-114 330,-114 330,-142 330,-142 330,-148 324,-154 318,-154 318,-154 243,-154 243,-154 237,-154 231,-148 231,-142 231,-142 231,-114 231,-114 231,-108 237,-102 243,-102"/>
<text text-anchor="middle" x="280.5" y="-142.8" font-family="Helvetica,sans-Serif" font-weight="bold" font-size="9.00">components</text>
</g>
<g id="clust3" class="cluster">
<title>cluster_src/pages</title>
<path fill="#ffffff" stroke="black" stroke-width="2" d="M157,-42C157,-42 211,-42 211,-42 217,-42 223,-48 223,-54 223,-54 223,-202 223,-202 223,-208 217,-214 211,-214 211,-214 157,-214 157,-214 151,-214 145,-208 145,-202 145,-202 145,-54 145,-54 145,-48 151,-42 157,-42"/>
<text text-anchor="middle" x="184" y="-202.8" font-family="Helvetica,sans-Serif" font-weight="bold" font-size="9.00">pages</text>
</g>
<!-- src/App.css -->
<g id="node1" class="node">
<title>src/App.css</title>
<g id="a_node1"><a xlink:href="src/App.css" xlink:title="App.css">
<path fill="#ffffcc" stroke="black" d="M205,-34C205,-34 163,-34 163,-34 160,-34 157,-31 157,-28 157,-28 157,-22 157,-22 157,-19 160,-16 163,-16 163,-16 205,-16 205,-16 208,-16 211,-19 211,-22 211,-22 211,-28 211,-28 211,-31 208,-34 205,-34"/>
<text text-anchor="middle" x="184" y="-22.8" font-family="Helvetica,sans-Serif" font-size="9.00">App.css</text>
</a>
</g>
</g>
<!-- src/App.js -->
<g id="node2" class="node">
<title>src/App.js</title>
<g id="a_node2"><a xlink:href="src/App.js" xlink:title="App.js">
<path fill="#ffffcc" stroke="black" d="M131,-113C131,-113 89,-113 89,-113 86,-113 83,-110 83,-107 83,-107 83,-101 83,-101 83,-98 86,-95 89,-95 89,-95 131,-95 131,-95 134,-95 137,-98 137,-101 137,-101 137,-107 137,-107 137,-110 134,-113 131,-113"/>
<text text-anchor="middle" x="110" y="-101.8" font-family="Helvetica,sans-Serif" font-size="9.00">App.js</text>
</a>
</g>
</g>
<!-- src/App.js&#45;&gt;src/App.css -->
<g id="edge1" class="edge">
<title>src/App.js&#45;&gt;src/App.css</title>
<path fill="none" stroke="#000000" stroke-width="2" stroke-opacity="0.200000" d="M113.52,-94.68C117.75,-80.7 127.59,-54.3 145,-39 146.9,-37.33 149.02,-35.85 151.26,-34.55"/>
<polygon fill="#000000" fill-opacity="0.200000" stroke="#000000" stroke-width="2" stroke-opacity="0.200000" points="152.25,-36.4 156.64,-31.8 150.34,-32.65 152.25,-36.4"/>
</g>
<!-- src/pages/Contacto.js -->
<g id="node3" class="node">
<title>src/pages/Contacto.js</title>
<g id="a_node3"><a xlink:href="src/pages/Contacto.js" xlink:title="Contacto.js">
<path fill="#ffffcc" stroke="black" d="M209,-188C209,-188 159,-188 159,-188 156,-188 153,-185 153,-182 153,-182 153,-176 153,-176 153,-173 156,-170 159,-170 159,-170 209,-170 209,-170 212,-170 215,-173 215,-176 215,-176 215,-182 215,-182 215,-185 212,-188 209,-188"/>
<text text-anchor="middle" x="184" y="-176.8" font-family="Helvetica,sans-Serif" font-size="9.00">Contacto.js</text>
</a>
</g>
</g>
<!-- src/App.js&#45;&gt;src/pages/Contacto.js -->
<g id="edge2" class="edge">
<title>src/App.js&#45;&gt;src/pages/Contacto.js</title>
<path fill="none" stroke="#000000" stroke-width="2" stroke-opacity="0.200000" d="M131.25,-113.17C133.45,-114.85 135.44,-116.78 137,-119 148.67,-135.63 132.14,-148.27 145,-164 145.81,-164.99 146.69,-165.91 147.63,-166.77"/>
<polygon fill="#000000" fill-opacity="0.200000" stroke="#000000" stroke-width="2" stroke-opacity="0.200000" points="146.71,-168.7 152.77,-170.6 149.22,-165.34 146.71,-168.7"/>
</g>
<!-- src/pages/Galeria.js -->
<g id="node4" class="node">
<title>src/pages/Galeria.js</title>
<g id="a_node4"><a xlink:href="src/pages/Galeria.js" xlink:title="Galeria.js">
<path fill="#ffffcc" stroke="black" d="M205.5,-158C205.5,-158 162.5,-158 162.5,-158 159.5,-158 156.5,-155 156.5,-152 156.5,-152 156.5,-146 156.5,-146 156.5,-143 159.5,-140 162.5,-140 162.5,-140 205.5,-140 205.5,-140 208.5,-140 211.5,-143 211.5,-146 211.5,-146 211.5,-152 211.5,-152 211.5,-155 208.5,-158 205.5,-158"/>
<text text-anchor="middle" x="184" y="-146.8" font-family="Helvetica,sans-Serif" font-size="9.00">Galeria.js</text>
</a>
</g>
</g>
<!-- src/App.js&#45;&gt;src/pages/Galeria.js -->
<g id="edge3" class="edge">
<title>src/App.js&#45;&gt;src/pages/Galeria.js</title>
<path fill="none" stroke="#000000" stroke-width="2" stroke-opacity="0.200000" d="M129.83,-113.14C132.41,-114.87 134.9,-116.83 137,-119 142.25,-124.43 139.36,-128.97 145,-134 146.74,-135.56 148.67,-136.96 150.7,-138.22"/>
<polygon fill="#000000" fill-opacity="0.200000" stroke="#000000" stroke-width="2" stroke-opacity="0.200000" points="149.99,-140.23 156.26,-141.26 152,-136.54 149.99,-140.23"/>
</g>
<!-- src/pages/Home.js -->
<g id="node5" class="node">
<title>src/pages/Home.js</title>
<g id="a_node5"><a xlink:href="src/pages/Home.js" xlink:title="Home.js">
<path fill="#ffffcc" stroke="black" d="M205,-128C205,-128 163,-128 163,-128 160,-128 157,-125 157,-122 157,-122 157,-116 157,-116 157,-113 160,-110 163,-110 163,-110 205,-110 205,-110 208,-110 211,-113 211,-116 211,-116 211,-122 211,-122 211,-125 208,-128 205,-128"/>
<text text-anchor="middle" x="184" y="-116.8" font-family="Helvetica,sans-Serif" font-size="9.00">Home.js</text>
</a>
</g>
</g>
<!-- src/App.js&#45;&gt;src/pages/Home.js -->
<g id="edge4" class="edge">
<title>src/App.js&#45;&gt;src/pages/Home.js</title>
<path fill="none" stroke="#000000" stroke-width="2" stroke-opacity="0.200000" d="M137.4,-109.5C141.71,-110.4 146.21,-111.33 150.64,-112.26"/>
<polygon fill="#000000" fill-opacity="0.200000" stroke="#000000" stroke-width="2" stroke-opacity="0.200000" points="150.3,-114.33 156.6,-113.5 151.16,-110.22 150.3,-114.33"/>
</g>
<!-- src/pages/Reserva.js -->
<g id="node6" class="node">
<title>src/pages/Reserva.js</title>
<g id="a_node6"><a xlink:href="src/pages/Reserva.js" xlink:title="Reserva.js">
<path fill="#ffffcc" stroke="black" d="M207.5,-98C207.5,-98 160.5,-98 160.5,-98 157.5,-98 154.5,-95 154.5,-92 154.5,-92 154.5,-86 154.5,-86 154.5,-83 157.5,-80 160.5,-80 160.5,-80 207.5,-80 207.5,-80 210.5,-80 213.5,-83 213.5,-86 213.5,-86 213.5,-92 213.5,-92 213.5,-95 210.5,-98 207.5,-98"/>
<text text-anchor="middle" x="184" y="-86.8" font-family="Helvetica,sans-Serif" font-size="9.00">Reserva.js</text>
</a>
</g>
</g>
<!-- src/App.js&#45;&gt;src/pages/Reserva.js -->
<g id="edge5" class="edge">
<title>src/App.js&#45;&gt;src/pages/Reserva.js</title>
<path fill="none" stroke="#000000" stroke-width="2" stroke-opacity="0.200000" d="M137.4,-98.5C140.9,-97.77 144.53,-97.02 148.14,-96.26"/>
<polygon fill="#000000" fill-opacity="0.200000" stroke="#000000" stroke-width="2" stroke-opacity="0.200000" points="148.73,-98.28 154.18,-95.01 147.87,-94.17 148.73,-98.28"/>
</g>
<!-- src/pages/Tarifas.js -->
<g id="node7" class="node">
<title>src/pages/Tarifas.js</title>
<g id="a_node7"><a xlink:href="src/pages/Tarifas.js" xlink:title="Tarifas.js">
<path fill="#ffffcc" stroke="black" d="M205,-68C205,-68 163,-68 163,-68 160,-68 157,-65 157,-62 157,-62 157,-56 157,-56 157,-53 160,-50 163,-50 163,-50 205,-50 205,-50 208,-50 211,-53 211,-56 211,-56 211,-62 211,-62 211,-65 208,-68 205,-68"/>
<text text-anchor="middle" x="184" y="-56.8" font-family="Helvetica,sans-Serif" font-size="9.00">Tarifas.js</text>
</a>
</g>
</g>
<!-- src/App.js&#45;&gt;src/pages/Tarifas.js -->
<g id="edge6" class="edge">
<title>src/App.js&#45;&gt;src/pages/Tarifas.js</title>
<path fill="none" stroke="#000000" stroke-width="2" stroke-opacity="0.200000" d="M119.55,-94.92C126.05,-88.43 135.47,-79.84 145,-74 146.93,-72.82 148.96,-71.7 151.05,-70.65"/>
<polygon fill="#000000" fill-opacity="0.200000" stroke="#000000" stroke-width="2" stroke-opacity="0.200000" points="152.13,-72.46 156.67,-68.01 150.34,-68.66 152.13,-72.46"/>
</g>
<!-- src/components/PageTemplate.js -->
<g id="node8" class="node">
<title>src/components/PageTemplate.js</title>
<g id="a_node8"><a xlink:href="src/components/PageTemplate.js" xlink:title="PageTemplate.js">
<path fill="#ffffcc" stroke="black" d="M316,-128C316,-128 245,-128 245,-128 242,-128 239,-125 239,-122 239,-122 239,-116 239,-116 239,-113 242,-110 245,-110 245,-110 316,-110 316,-110 319,-110 322,-113 322,-116 322,-116 322,-122 322,-122 322,-125 319,-128 316,-128"/>
<text text-anchor="middle" x="280.5" y="-116.8" font-family="Helvetica,sans-Serif" font-size="9.00">PageTemplate.js</text>
</a>
</g>
</g>
<!-- src/pages/Contacto.js&#45;&gt;src/components/PageTemplate.js -->
<g id="edge9" class="edge">
<title>src/pages/Contacto.js&#45;&gt;src/components/PageTemplate.js</title>
<path fill="none" stroke="#000000" stroke-width="2" stroke-opacity="0.200000" d="M211.24,-169.83C215.27,-168.09 219.32,-166.13 223,-164 238.44,-155.07 254.16,-142.18 265.09,-132.48"/>
<polygon fill="#000000" fill-opacity="0.200000" stroke="#000000" stroke-width="2" stroke-opacity="0.200000" points="266.7,-133.85 269.75,-128.27 263.89,-130.73 266.7,-133.85"/>
</g>
<!-- src/pages/Galeria.js&#45;&gt;src/components/PageTemplate.js -->
<g id="edge10" class="edge">
<title>src/pages/Galeria.js&#45;&gt;src/components/PageTemplate.js</title>
<path fill="none" stroke="#000000" stroke-width="2" stroke-opacity="0.200000" d="M211.58,-140.56C221.98,-137.26 234.06,-133.42 245.12,-129.91"/>
<polygon fill="#000000" fill-opacity="0.200000" stroke="#000000" stroke-width="2" stroke-opacity="0.200000" points="246.06,-131.82 251.14,-128 244.79,-127.82 246.06,-131.82"/>
</g>
<!-- src/pages/Home.js&#45;&gt;src/components/PageTemplate.js -->
<g id="edge11" class="edge">
<title>src/pages/Home.js&#45;&gt;src/components/PageTemplate.js</title>
<path fill="none" stroke="#000000" stroke-width="2" stroke-opacity="0.200000" d="M211.07,-119C217.82,-119 225.29,-119 232.74,-119"/>
<polygon fill="#000000" fill-opacity="0.200000" stroke="#000000" stroke-width="2" stroke-opacity="0.200000" points="232.98,-121.1 238.98,-119 232.98,-116.9 232.98,-121.1"/>
</g>
<!-- src/pages/Reserva.js&#45;&gt;src/components/PageTemplate.js -->
<g id="edge12" class="edge">
<title>src/pages/Reserva.js&#45;&gt;src/components/PageTemplate.js</title>
<path fill="none" stroke="#000000" stroke-width="2" stroke-opacity="0.200000" d="M213.35,-98C223.26,-101.15 234.5,-104.71 244.86,-108"/>
<polygon fill="#000000" fill-opacity="0.200000" stroke="#000000" stroke-width="2" stroke-opacity="0.200000" points="244.49,-110.09 250.84,-109.9 245.76,-106.08 244.49,-110.09"/>
</g>
<!-- src/pages/Tarifas.js&#45;&gt;src/components/PageTemplate.js -->
<g id="edge13" class="edge">
<title>src/pages/Tarifas.js&#45;&gt;src/components/PageTemplate.js</title>
<path fill="none" stroke="#000000" stroke-width="2" stroke-opacity="0.200000" d="M211.24,-68.17C215.27,-69.91 219.32,-71.87 223,-74 238.44,-82.93 254.16,-95.82 265.09,-105.52"/>
<polygon fill="#000000" fill-opacity="0.200000" stroke="#000000" stroke-width="2" stroke-opacity="0.200000" points="263.89,-107.27 269.75,-109.73 266.7,-104.15 263.89,-107.27"/>
</g>
<!-- src/index.css -->
<g id="node9" class="node">
<title>src/index.css</title>
<g id="a_node9"><a xlink:href="src/index.css" xlink:title="index.css">
<path fill="#ffffcc" stroke="black" d="M131,-143C131,-143 89,-143 89,-143 86,-143 83,-140 83,-137 83,-137 83,-131 83,-131 83,-128 86,-125 89,-125 89,-125 131,-125 131,-125 134,-125 137,-128 137,-131 137,-131 137,-137 137,-137 137,-140 134,-143 131,-143"/>
<text text-anchor="middle" x="110" y="-131.8" font-family="Helvetica,sans-Serif" font-size="9.00">index.css</text>
</a>
</g>
</g>
<!-- src/index.js -->
<g id="node10" class="node">
<title>src/index.js</title>
<g id="a_node10"><a xlink:href="src/index.js" xlink:title="index.js">
<path fill="#ffffcc" stroke="black" d="M64,-128C64,-128 22,-128 22,-128 19,-128 16,-125 16,-122 16,-122 16,-116 16,-116 16,-113 19,-110 22,-110 22,-110 64,-110 64,-110 67,-110 70,-113 70,-116 70,-116 70,-122 70,-122 70,-125 67,-128 64,-128"/>
<text text-anchor="middle" x="43" y="-116.8" font-family="Helvetica,sans-Serif" font-size="9.00">index.js</text>
</a>
</g>
</g>
<!-- src/index.js&#45;&gt;src/App.js -->
<g id="edge7" class="edge">
<title>src/index.js&#45;&gt;src/App.js</title>
<path fill="none" stroke="#000000" stroke-width="2" stroke-opacity="0.200000" d="M70.06,-112.99C72.32,-112.47 74.61,-111.94 76.9,-111.41"/>
<polygon fill="#000000" fill-opacity="0.200000" stroke="#000000" stroke-width="2" stroke-opacity="0.200000" points="77.56,-113.41 82.93,-110.02 76.61,-109.32 77.56,-113.41"/>
</g>
<!-- src/index.js&#45;&gt;src/index.css -->
<g id="edge8" class="edge">
<title>src/index.js&#45;&gt;src/index.css</title>
<path fill="none" stroke="#000000" stroke-width="2" stroke-opacity="0.200000" d="M70.06,-125.01C72.32,-125.53 74.61,-126.06 76.9,-126.59"/>
<polygon fill="#000000" fill-opacity="0.200000" stroke="#000000" stroke-width="2" stroke-opacity="0.200000" points="76.61,-128.68 82.93,-127.98 77.56,-124.59 76.61,-128.68"/>
</g>
</g>
</svg>
